<?xml version="1.0" standalone="no"?>
<!DOCTYPE svg PUBLIC "-//W3C//DTD SVG 20010904//EN"
 "http://www.w3.org/TR/2001/REC-SVG-20010904/DTD/svg10.dtd">
<svg version="1.0" xmlns="http://www.w3.org/2000/svg"
 width="1200.000000pt" height="600.000000pt" viewBox="0 0 1200.000000 600.000000"
 preserveAspectRatio="xMidYMid meet">

<g transform="translate(0.000000,600.000000) scale(0.100000,-0.100000)"
fill="#000000" stroke="none">
<path d="M2584 4050 c-12 -4 -208 -246 -438 -536 -434 -552 -434 -551 -404
-607 40 -76 585 -926 605 -944 22 -21 33 -23 154 -23 l131 0 29 29 29 29 0
1002 0 1002 -29 29 c-31 30 -42 33 -77 19z"/>
<path d="M3928 3658 c-13 -11 -601 -1329 -622 -1396 -13 -38 24 -62 97 -62 34
0 69 5 77 10 8 5 47 87 86 182 l71 173 368 0 368 0 71 -173 c39 -95 78 -177
86 -182 8 -5 42 -10 75 -10 69 0 105 19 105 55 0 30 -597 1386 -618 1403 -9 7
-44 12 -82 12 -38 0 -73 -5 -82 -12z m239 -575 l142 -328 -145 -3 c-79 -1
-209 -1 -288 0 l-145 3 142 328 c78 180 144 327 147 327 3 0 69 -147 147 -327z"/>
<path d="M8281 3184 c-20 -26 -21 -39 -21 -303 0 -309 8 -377 51 -462 57 -114
148 -173 285 -186 84 -8 195 19 240 59 l34 30 0 -29 c0 -45 27 -63 92 -63 34
0 60 5 66 13 17 20 17 913 1 933 -15 18 -118 19 -142 2 -14 -12 -17 -49 -19
-328 l-3 -315 -27 -46 c-71 -121 -269 -135 -353 -25 -51 68 -54 87 -55 413 0
300 0 302 -22 317 -12 9 -41 16 -64 16 -34 0 -47 -5 -63 -26z"/>
<path d="M5315 3186 c-72 -17 -117 -35 -173 -70 l-42 -26 0 26 c0 52 -15 64
-81 64 -109 0 -99 65 -99 -615 0 -526 2 -595 16 -609 19 -19 134 -22 152 -4 8
8 12 64 12 184 l0 173 51 -35 c115 -77 276 -98 419 -55 68 21 81 30 158 104
131 128 172 217 172 377 0 229 -136 413 -350 474 -82 23 -167 27 -235 12z
m210 -185 c69 -33 123 -82 161 -147 22 -37 28 -63 32 -123 5 -96 -8 -145 -61
-223 -55 -80 -137 -128 -232 -136 -56 -4 -71 -1 -127 25 -76 36 -129 86 -166
156 -24 47 -27 62 -27 152 0 115 14 152 86 224 101 101 220 127 334 72z"/>
<path d="M6495 3186 c-76 -17 -125 -38 -181 -75 l-44 -30 0 30 c0 56 -14 69
-76 69 -104 0 -94 63 -94 -613 0 -448 3 -596 12 -605 16 -16 130 -16 146 0 8
8 12 64 12 184 l0 173 51 -35 c140 -94 345 -103 503 -22 53 27 161 131 193
186 65 110 82 277 43 405 -36 117 -132 232 -240 287 -93 48 -231 67 -325 46z
m210 -185 c70 -33 123 -82 162 -149 26 -43 28 -56 28 -147 0 -92 -2 -104 -30
-153 -62 -113 -145 -169 -262 -179 -54 -5 -69 -2 -125 24 -76 36 -129 86 -166
156 -24 47 -27 62 -27 152 0 115 14 152 86 224 101 101 220 127 334 72z"/>
<path d="M7675 3180 c-114 -18 -195 -62 -281 -152 -98 -101 -134 -193 -134
-338 0 -145 36 -237 134 -338 65 -68 114 -101 186 -127 117 -43 281 -37 371
12 67 36 139 100 139 123 0 24 -78 110 -99 110 -10 0 -30 -14 -47 -31 -79 -84
-215 -108 -324 -58 -66 31 -125 88 -165 161 -26 46 -30 63 -30 133 0 72 3 86
34 142 68 125 159 187 276 186 77 0 132 -21 193 -74 18 -16 39 -29 47 -29 23
0 95 98 95 129 0 49 -89 114 -190 139 -65 16 -147 20 -205 12z"/>
<path d="M9568 3171 c-150 -48 -251 -153 -310 -321 -53 -151 2 -390 114 -496
107 -102 234 -150 375 -142 154 10 286 84 364 206 40 64 33 72 -66 72 l-84 0
-48 -42 c-73 -63 -122 -81 -207 -76 -123 7 -241 86 -266 178 -6 23 -14 48 -17
56 -4 12 48 14 370 14 440 0 413 -7 403 100 -11 119 -63 248 -130 318 -46 49
-148 112 -217 133 -79 25 -203 25 -281 0z m254 -168 c69 -27 126 -71 163 -126
62 -92 77 -87 -261 -87 l-295 0 7 23 c20 67 102 153 177 187 53 25 151 26 209
3z"/>
<path d="M10530 3170 c-75 -27 -151 -100 -173 -165 -23 -65 -21 -133 4 -200
18 -49 29 -62 90 -104 56 -40 90 -55 186 -81 65 -18 130 -39 145 -48 37 -22
51 -63 35 -110 -28 -84 -182 -116 -278 -57 -25 15 -54 43 -65 63 -28 51 -44
58 -95 42 -23 -8 -51 -22 -63 -31 l-21 -18 30 -57 c68 -132 185 -193 349 -182
99 7 172 38 235 98 114 109 119 229 15 348 -53 61 -116 96 -219 122 -157 40
-228 107 -190 180 23 45 70 70 132 70 74 0 101 -13 160 -78 l52 -57 35 19 c19
10 45 29 57 42 19 20 20 27 10 52 -17 41 -109 128 -156 148 -63 26 -207 28
-275 4z"/>
<path d="M1444 2580 c-12 -5 -114 -127 -228 -273 -224 -288 -233 -304 -180
-346 25 -20 39 -21 241 -21 l215 0 29 30 30 29 -3 270 c-3 255 -4 272 -23 290
-26 24 -54 32 -81 21z"/>
</g>
</svg>
