<?xml version="1.0" encoding="UTF-8" standalone="no"?>
<!-- Created with Inkscape (http://www.inkscape.org/) -->

<svg
   version="1.1"
   id="svg21567"
   width="1039.2852"
   height="721.29321"
   viewBox="0 0 1039.2852 721.29321"
   sodipodi:docname="Apple Studios logo (2022-present).svg"
   inkscape:version="1.1.2 (0a00cf5339, 2022-02-04)"
   xmlns:inkscape="http://www.inkscape.org/namespaces/inkscape"
   xmlns:sodipodi="http://sodipodi.sourceforge.net/DTD/sodipodi-0.dtd"
   xmlns="http://www.w3.org/2000/svg"
   xmlns:svg="http://www.w3.org/2000/svg">
  <defs
     id="defs21571">
    <clipPath
       clipPathUnits="userSpaceOnUse"
       id="clipPath18">
      <path
         d="M 774,954 H 27 V 27 h 747 z"
         id="path16" />
    </clipPath>
    <clipPath
       clipPathUnits="userSpaceOnUse"
       id="clipPath24">
      <path
         d="M 774,954 H 27 V 27 h 747 z"
         id="path22" />
    </clipPath>
    <clipPath
       clipPathUnits="userSpaceOnUse"
       id="clipPath30">
      <path
         d="M 12,12 H 789 V 969 H 12 Z"
         id="path28" />
    </clipPath>
    <clipPath
       clipPathUnits="userSpaceOnUse"
       id="clipPath40">
      <path
         d="M 774,954 H 27 V 27 h 747 z"
         id="path38" />
    </clipPath>
    <clipPath
       clipPathUnits="userSpaceOnUse"
       id="clipPath46">
      <path
         d="M 774,954 H 27 V 27 h 747 z"
         id="path44" />
    </clipPath>
    <clipPath
       clipPathUnits="userSpaceOnUse"
       id="clipPath52">
      <path
         d="M 27,27 H 774 V 954 H 27 Z"
         id="path50" />
    </clipPath>
    <clipPath
       clipPathUnits="userSpaceOnUse"
       id="clipPath64">
      <path
         d="M 774,954 H 27 V 27 h 747 z"
         id="path62" />
    </clipPath>
    <clipPath
       clipPathUnits="userSpaceOnUse"
       id="clipPath70">
      <path
         d="M 774,954 H 27 V 27 h 747 z"
         id="path68" />
    </clipPath>
    <clipPath
       clipPathUnits="userSpaceOnUse"
       id="clipPath76">
      <path
         d="M 12,12 H 789 V 969 H 12 Z"
         id="path74" />
    </clipPath>
    <clipPath
       clipPathUnits="userSpaceOnUse"
       id="clipPath962">
      <path
         d="M 774,954 H 27 V 27 h 747 z"
         id="path960" />
    </clipPath>
    <clipPath
       clipPathUnits="userSpaceOnUse"
       id="clipPath968">
      <path
         d="M 774,954 H 27 V 27 h 747 z"
         id="path966" />
    </clipPath>
    <clipPath
       clipPathUnits="userSpaceOnUse"
       id="clipPath974">
      <path
         d="m 40.5,40.5 h 720 v 900 h -720 z"
         id="path972" />
    </clipPath>
    <clipPath
       clipPathUnits="userSpaceOnUse"
       id="clipPath986">
      <path
         d="M 774,954 H 27 V 27 h 747 z"
         id="path984" />
    </clipPath>
    <clipPath
       clipPathUnits="userSpaceOnUse"
       id="clipPath992">
      <path
         d="M 774,954 H 27 V 27 h 747 z"
         id="path990" />
    </clipPath>
    <clipPath
       clipPathUnits="userSpaceOnUse"
       id="clipPath998">
      <path
         d="M 12,12 H 789 V 969 H 12 Z"
         id="path996" />
    </clipPath>
    <clipPath
       clipPathUnits="userSpaceOnUse"
       id="clipPath1038">
      <path
         d="M 774,954 H 27 V 27 h 747 z"
         id="path1036" />
    </clipPath>
    <clipPath
       clipPathUnits="userSpaceOnUse"
       id="clipPath1044">
      <path
         d="M 774,954 H 27 V 27 h 747 z"
         id="path1042" />
    </clipPath>
    <clipPath
       clipPathUnits="userSpaceOnUse"
       id="clipPath1050">
      <path
         d="M 12,12 H 789 V 969 H 12 Z"
         id="path1048" />
    </clipPath>
    <clipPath
       clipPathUnits="userSpaceOnUse"
       id="clipPath1090">
      <path
         d="M 0,0 H 801 V 981 H 0 Z"
         id="path1088" />
    </clipPath>
  </defs>
  <sodipodi:namedview
     id="namedview21569"
     pagecolor="#ffffff"
     bordercolor="#999999"
     borderopacity="1"
     inkscape:pageshadow="0"
     inkscape:pageopacity="0"
     inkscape:pagecheckerboard="0"
     showgrid="false"
     inkscape:zoom="0.657153"
     inkscape:cx="519.66589"
     inkscape:cy="360.64661"
     inkscape:window-width="1366"
     inkscape:window-height="683"
     inkscape:window-x="0"
     inkscape:window-y="0"
     inkscape:window-maximized="1"
     inkscape:current-layer="g21573" />
  <g
     inkscape:groupmode="layer"
     inkscape:label="Image"
     id="g21573"
     transform="translate(-1396.2281,-597.18457)">
    <g
       id="g23286">
      <path
         d="m 1396.2281,1287.8173 h 20.5863 l 11.651,-34.1646 h 48.7065 l 11.5634,34.1646 h 20.5864 l -45.9032,-126.4091 h -21.1996 z m 56.4154,-105.4723 h 0.3504 l 18.8343,55.5394 h -38.1067 z"
         id="path23218"
         style="font-weight:500;font-size:179.408px;line-height:1.25;font-family:'SF Pro Display';-inkscape-font-specification:'SF Pro Display Medium';text-align:center;letter-spacing:-2.8049px;text-anchor:middle;stroke-width:4.48526" />
      <path
         d="m 1518.1678,1318.4778 h 18.9219 v -46.166 h 0.438 c 5.4313,10.6874 16.0311,17.3451 29.0837,17.3451 23.1269,0 38.2819,-18.4839 38.2819,-47.8305 v -0.088 c 0,-29.4341 -15.0674,-47.8304 -38.5447,-47.8304 -13.1402,0 -23.302,6.6577 -28.8209,17.6079 h -0.438 V 1195.66 h -18.9219 z m 43.2752,-45.1148 c -14.2791,0 -24.4409,-12.4394 -24.4409,-31.5366 v -0.088 c 0,-19.1847 10.0742,-31.6241 24.4409,-31.6241 14.8046,0 24.178,12.0014 24.178,31.6241 v 0.088 c 0,19.4476 -9.2858,31.5366 -24.178,31.5366 z"
         id="path23220"
         style="font-weight:500;font-size:179.408px;line-height:1.25;font-family:'SF Pro Display';-inkscape-font-specification:'SF Pro Display Medium';text-align:center;letter-spacing:-2.8049px;text-anchor:middle;stroke-width:4.48526" />
      <path
         d="m 1616.7179,1318.4778 h 18.9219 v -46.166 h 0.438 c 5.4313,10.6874 16.0311,17.3451 29.0838,17.3451 23.1268,0 38.2818,-18.4839 38.2818,-47.8305 v -0.088 c 0,-29.4341 -15.0674,-47.8304 -38.5446,-47.8304 -13.1403,0 -23.3021,6.6577 -28.821,17.6079 h -0.438 V 1195.66 h -18.9219 z m 43.2752,-45.1148 c -14.2791,0 -24.4409,-12.4394 -24.4409,-31.5366 v -0.088 c 0,-19.1847 10.0742,-31.6241 24.4409,-31.6241 14.8046,0 24.178,12.0014 24.178,31.6241 v 0.088 c 0,19.4476 -9.2858,31.5366 -24.178,31.5366 z"
         id="path23222"
         style="font-weight:500;font-size:179.408px;line-height:1.25;font-family:'SF Pro Display';-inkscape-font-specification:'SF Pro Display Medium';text-align:center;letter-spacing:-2.8049px;text-anchor:middle;stroke-width:4.48526" />
      <path
         d="m 1715.9688,1287.8173 h 18.9219 v -126.4091 h -18.9219 z"
         id="path23224"
         style="font-weight:500;font-size:179.408px;line-height:1.25;font-family:'SF Pro Display';-inkscape-font-specification:'SF Pro Display Medium';text-align:center;letter-spacing:-2.8049px;text-anchor:middle;stroke-width:4.48526" />
      <path
         d="m 1790.8665,1289.6569 c 22.3384,0 36.5299,-13.3154 39.5083,-27.9449 l 0.1752,-0.9636 h -17.9583 l -0.2628,0.7008 c -2.3653,6.9205 -9.8114,12.7022 -21.0244,12.7022 -15.0675,0 -24.616,-10.1618 -24.9664,-27.5945 h 65.2631 v -6.3949 c 0,-27.6821 -15.8558,-46.2536 -41.6983,-46.2536 -25.8425,0 -42.4868,19.2723 -42.4868,48.0932 v 0.088 c 0,29.0838 16.3815,47.5677 43.4504,47.5677 z m -0.876,-80.243 c 12.3518,0 21.2872,7.7965 22.864,23.74 h -46.2536 c 1.6644,-15.4179 11.1254,-23.74 23.3896,-23.74 z"
         id="path23226"
         style="font-weight:500;font-size:179.408px;line-height:1.25;font-family:'SF Pro Display';-inkscape-font-specification:'SF Pro Display Medium';text-align:center;letter-spacing:-2.8049px;text-anchor:middle;stroke-width:4.48526" />
      <path
         d="m 1922.3532,1289.9197 c 29.9597,0 48.1808,-14.6295 48.1808,-37.6687 v -0.088 c 0,-19.5351 -11.213,-30.1349 -37.3183,-35.6538 l -13.841,-2.8909 c -15.7683,-3.4164 -22.9516,-9.1981 -22.9516,-18.6591 v -0.088 c 0,-11.0378 9.9866,-18.4839 25.6672,-18.5715 14.9799,0 25.1417,7.0957 26.8937,18.8343 l 0.088,1.2264 h 19.0972 l -0.088,-1.4892 c -1.3141,-21.1996 -19.36,-35.5662 -45.728,-35.5662 -26.7185,0 -45.7281,14.8046 -45.8157,36.3546 v 0.088 c 0,18.7468 12.0015,30.135 36.7927,35.391 l 13.7534,2.8909 c 16.7319,3.6793 23.6525,9.1982 23.6525,19.3599 v 0.088 c 0,11.8263 -10.6874,19.4476 -27.5945,19.4476 -16.9071,0 -28.5581,-7.2709 -30.3102,-18.9219 l -0.1752,-1.1389 h -19.0971 l 0.088,1.3141 c 1.5768,22.2508 20.3235,35.7414 48.7065,35.7414 z"
         id="path23228"
         style="font-weight:500;font-size:179.408px;line-height:1.25;font-family:'SF Pro Display';-inkscape-font-specification:'SF Pro Display Medium';text-align:center;letter-spacing:-2.8049px;text-anchor:middle;stroke-width:4.48526" />
      <path
         d="m 2015.3844,1289.6569 c 3.8544,0 7.4461,-0.438 9.6361,-0.7884 v -14.6295 c -1.4016,0.1752 -3.066,0.3504 -5.0809,0.3504 -7.9717,0 -12.1766,-2.8032 -12.1766,-12.1766 v -51.6849 h 17.2575 v -15.0675 h -17.2575 v -24.0028 h -19.3599 v 24.0028 h -13.2279 v 15.0675 h 13.2279 v 52.8237 c 0,18.3964 8.7601,26.1053 26.9813,26.1053 z"
         id="path23230"
         style="font-weight:500;font-size:179.408px;line-height:1.25;font-family:'SF Pro Display';-inkscape-font-specification:'SF Pro Display Medium';text-align:center;letter-spacing:-2.8049px;text-anchor:middle;stroke-width:4.48526" />
      <path
         d="m 2069.1701,1289.6569 c 14.0162,0 23.3896,-6.3949 28.2077,-15.6807 h 0.438 v 13.8411 h 19.0095 v -92.1569 h -19.0095 v 53.7874 c 0,14.3666 -8.585,23.9152 -21.9004,23.9152 -13.1402,0 -19.6228,-7.7089 -19.6228,-21.6376 v -56.065 h -18.9219 v 59.7443 c 0,21.1996 11.5634,34.2522 31.7994,34.2522 z"
         id="path23232"
         style="font-weight:500;font-size:179.408px;line-height:1.25;font-family:'SF Pro Display';-inkscape-font-specification:'SF Pro Display Medium';text-align:center;letter-spacing:-2.8049px;text-anchor:middle;stroke-width:4.48526" />
      <path
         d="m 2167.107,1289.6569 c 13.2278,0 23.3896,-6.6577 28.9085,-17.4327 h 0.3504 v 15.5931 h 19.0095 v -126.4091 h -19.0095 v 49.9329 h -0.3504 c -5.5189,-10.8626 -16.0311,-17.4327 -29.0837,-17.4327 -23.1268,0 -38.3695,18.3963 -38.3695,47.7428 v 0.088 c 0,29.3466 15.0674,47.9181 38.5447,47.9181 z m 4.9933,-16.2939 c -14.9799,0 -24.1781,-12.0014 -24.1781,-31.6242 v -0.088 c 0,-19.4475 9.2858,-31.5365 24.1781,-31.5365 14.1914,0 24.3532,12.4394 24.3532,31.5365 v 0.088 c 0,19.1848 -10.0742,31.6242 -24.3532,31.6242 z"
         id="path23234"
         style="font-weight:500;font-size:179.408px;line-height:1.25;font-family:'SF Pro Display';-inkscape-font-specification:'SF Pro Display Medium';text-align:center;letter-spacing:-2.8049px;text-anchor:middle;stroke-width:4.48526" />
      <path
         d="m 2242.1799,1181.469 c 6.2197,0 11.0377,-4.9057 11.0377,-10.8626 0,-6.0445 -4.818,-10.9502 -11.0377,-10.9502 -6.1322,0 -11.0378,4.9057 -11.0378,10.9502 0,5.9569 4.9056,10.8626 11.0378,10.8626 z m -9.461,106.3483 h 18.9219 v -92.1569 h -18.9219 z"
         id="path23236"
         style="font-weight:500;font-size:179.408px;line-height:1.25;font-family:'SF Pro Display';-inkscape-font-specification:'SF Pro Display Medium';text-align:center;letter-spacing:-2.8049px;text-anchor:middle;stroke-width:4.48526" />
      <path
         d="m 2307.967,1289.6569 c 26.3681,0 43.7132,-18.2211 43.7132,-47.9181 v -0.1752 c 0,-29.5217 -17.5203,-47.6552 -43.8008,-47.6552 -26.1929,0 -43.6256,18.2211 -43.6256,47.6552 v 0.1752 c 0,29.6094 17.2575,47.9181 43.7132,47.9181 z m 0.088,-15.8559 c -14.8047,0 -24.4408,-11.651 -24.4408,-32.0622 v -0.1752 c 0,-20.1483 9.7237,-31.7993 24.2656,-31.7993 14.8047,0 24.4408,11.651 24.4408,31.7993 v 0.1752 c 0,20.3236 -9.4609,32.0622 -24.2656,32.0622 z"
         id="path23238"
         style="font-weight:500;font-size:179.408px;line-height:1.25;font-family:'SF Pro Display';-inkscape-font-specification:'SF Pro Display Medium';text-align:center;letter-spacing:-2.8049px;text-anchor:middle;stroke-width:4.48526" />
      <path
         d="m 2398.0198,1289.6569 c 21.7252,0 37.4934,-11.5634 37.4934,-28.3829 v -0.088 c 0,-13.2279 -7.1833,-20.674 -26.0176,-25.0541 l -14.9799,-3.4164 c -9.899,-2.3653 -13.6658,-6.2197 -13.6658,-11.9138 v -0.088 c 0,-7.3586 6.3949,-12.1767 16.5567,-12.1767 10.6873,0 16.9947,5.6065 18.1335,13.6659 l 0.088,0.6132 h 17.7831 l -0.088,-1.0512 c -0.9636,-15.6807 -14.1039,-27.8573 -35.9166,-27.8573 -21.1996,0 -35.5663,11.3006 -35.5663,27.7697 v 0.088 c 0,13.403 8.6726,21.8128 26.1929,25.8424 l 15.0675,3.4165 c 9.8989,2.3652 13.2278,5.7817 13.2278,11.7386 v 0.088 c 0,7.4461 -6.8329,12.1766 -18.2211,12.1766 -11.651,0 -17.9584,-4.9933 -19.7104,-13.4906 l -0.1752,-0.876 h -18.7467 l 0.088,0.7884 c 1.9272,16.8195 15.4179,28.2077 38.4571,28.2077 z"
         id="path23240"
         style="font-weight:500;font-size:179.408px;line-height:1.25;font-family:'SF Pro Display';-inkscape-font-specification:'SF Pro Display Medium';text-align:center;letter-spacing:-2.8049px;text-anchor:middle;stroke-width:4.48526" />
      <path
         id="path78"
         style="display:inline;fill:#000000;fill-opacity:1;fill-rule:evenodd;stroke:none;stroke-width:15.4696"
         d="m 1987.9514,673.71258 c 16.7536,-20.24968 28.0308,-48.48166 24.9214,-76.52801 -24.117,0.94364 -53.2617,16.07289 -70.5722,36.3071 -15.485,17.94471 -29.0828,46.65625 -25.401,74.14569 26.8861,2.0884 54.2982,-13.65963 71.0518,-33.92478 m 91.4406,343.31632 c 23.1271,-33.75458 32.6254,-66.45727 33.1978,-68.17439 -0.7271,-0.27846 -63.6574,-24.44193 -64.3071,-96.99426 -0.5569,-60.65622 49.4872,-89.81638 51.7767,-91.22411 -28.4176,-41.86068 -72.3048,-46.48608 -87.7744,-47.63083 -39.4474,-2.92375 -72.9081,22.05962 -91.5799,22.05962 -18.9348,0 -48.1413,-21.44084 -79.1114,-20.83752 -40.6696,0.58784 -78.1369,23.66845 -99.1136,60.09931 -42.232,73.35674 -10.7823,182.03053 30.3513,241.55748 20.1259,29.0828 44.1347,61.8628 75.6462,60.6717 30.3513,-1.2066 41.8298,-19.6464 78.5081,-19.6464 36.6629,0 46.9966,19.6464 79.0805,19.0431 32.6564,-0.6033 53.3701,-29.6861 73.3258,-58.9237" />
    </g>
  </g>
</svg>
