<?xml version="1.0" standalone="no"?>
<!DOCTYPE svg PUBLIC "-//W3C//DTD SVG 20010904//EN"
 "http://www.w3.org/TR/2001/REC-SVG-20010904/DTD/svg10.dtd">
<svg version="1.0" xmlns="http://www.w3.org/2000/svg"
 width="830.000000pt" height="568.000000pt" viewBox="0 0 830.000000 568.000000"
 preserveAspectRatio="xMidYMid meet">

<g transform="translate(0.000000,568.000000) scale(0.100000,-0.100000)"
fill="#000000" stroke="none">
<path d="M2434 5637 c-154 -107 -338 -284 -448 -430 -512 -682 -599 -1675
-216 -2472 209 -434 578 -789 1020 -980 216 -94 470 -161 720 -189 155 -18
471 -21 635 -6 1050 96 2017 664 2417 1420 297 561 270 1207 -74 1757 -217
349 -614 699 -1030 909 l-68 34 -1447 -1 -1448 0 -61 -42z m2857 -886 c18 -22
19 -46 19 -515 0 -287 5 -509 10 -534 17 -72 5 -82 -96 -82 -98 0 -118 7 -133
52 l-11 32 -33 -31 c-107 -103 -275 -104 -390 -3 -65 57 -117 196 -117 313 0
70 26 173 55 223 84 144 263 204 399 135 l57 -29 -2 223 c-1 122 2 228 6 235
5 8 37 11 112 8 96 -3 106 -5 124 -27z m-2557 -377 c17 -16 22 -89 8 -111 -4
-7 -27 -16 -51 -22 -63 -14 -67 -22 -42 -80 54 -126 31 -265 -60 -365 -72 -79
-147 -113 -290 -131 -123 -15 -159 -34 -159 -85 0 -67 54 -84 220 -70 180 16
271 -8 316 -86 19 -32 25 -57 25 -99 0 -180 -198 -305 -485 -305 -176 0 -271
36 -307 114 -10 23 -19 48 -19 56 0 33 22 91 46 120 l26 30 -33 27 c-108 92
-67 243 89 322 l55 28 -44 25 c-106 63 -162 157 -163 273 -1 231 172 368 442
353 63 -4 106 -13 155 -33 l68 -27 24 27 c48 51 146 72 179 39z m589 -33 c78
-31 167 -114 207 -194 137 -279 -111 -597 -427 -547 -139 22 -247 99 -306 219
-30 61 -32 73 -32 166 0 88 3 106 27 155 15 31 43 74 62 95 40 48 130 104 194
122 69 19 204 11 275 -16z m900 -4 c80 -36 167 -122 203 -200 26 -54 29 -74
29 -157 0 -85 -3 -101 -29 -155 -99 -201 -351 -287 -553 -189 -295 143 -297
541 -3 694 90 47 255 50 353 7z m321 -900 c13 -9 18 -27 19 -61 1 -56 -12 -70
-73 -80 -21 -3 -41 -10 -44 -14 -3 -5 6 -35 19 -68 53 -128 25 -275 -69 -369
-73 -73 -145 -104 -270 -117 -116 -12 -148 -25 -166 -67 -10 -26 -10 -35 4
-56 25 -38 80 -48 206 -37 118 10 213 1 260 -23 16 -8 42 -32 57 -52 25 -32
28 -45 28 -107 0 -59 -5 -79 -27 -118 -35 -59 -91 -103 -176 -138 -97 -41
-173 -53 -313 -49 -114 4 -129 6 -184 34 -37 19 -69 43 -82 64 -38 57 -28 139
23 192 l25 27 -29 21 c-39 27 -62 78 -62 136 0 86 53 155 154 200 l50 22 -37
18 c-54 25 -125 98 -149 152 -41 92 -33 220 18 310 33 58 106 118 173 144 112
43 290 37 399 -14 l43 -20 28 27 c50 48 139 69 175 43z m907 -9 c11 -16 11
-89 1 -105 -4 -7 -27 -16 -51 -22 -64 -14 -68 -22 -40 -83 36 -80 34 -202 -4
-279 -15 -31 -50 -78 -77 -103 -72 -68 -136 -94 -271 -110 -102 -13 -116 -17
-136 -41 -28 -32 -29 -69 -4 -94 21 -21 118 -38 147 -27 9 4 67 7 129 7 94 1
120 -3 162 -21 69 -30 96 -69 101 -148 6 -85 -16 -139 -78 -195 -102 -92 -236
-131 -433 -125 -121 3 -137 5 -190 32 -111 54 -137 165 -61 255 l26 31 -33 27
c-109 92 -64 249 93 323 l57 27 -35 17 c-57 27 -130 102 -154 159 -17 39 -23
71 -22 127 0 229 170 363 440 348 62 -4 106 -13 153 -32 l67 -26 31 27 c17 16
46 34 64 40 38 15 107 10 118 -9z m-2054 -12 c99 -26 182 -100 204 -178 13
-51 7 -134 -14 -175 -51 -99 -184 -156 -359 -155 -46 0 -78 -4 -78 -10 0 -23
46 -72 84 -89 57 -26 164 -25 236 2 30 12 71 22 90 23 31 1 35 -2 38 -26 4
-32 -33 -63 -128 -107 -155 -71 -354 -53 -468 44 -221 186 -125 580 163 671
54 17 168 17 232 0z m2523 -7 c87 -24 147 -55 155 -80 3 -10 -1 -32 -10 -50
-18 -34 -10 -34 -140 -3 -89 21 -151 8 -161 -32 -9 -34 23 -67 95 -95 160 -63
230 -114 257 -184 29 -76 0 -171 -70 -232 -110 -98 -342 -101 -502 -7 -59 35
-78 58 -70 89 8 31 22 31 111 0 99 -35 212 -35 252 -1 24 21 26 27 18 52 -8
24 -31 39 -134 90 -69 33 -141 76 -161 95 -87 83 -72 238 30 319 79 62 196 76
330 39z"/>
<path d="M4882 4230 c-116 -71 -118 -415 -3 -483 58 -34 113 -11 151 64 17 33
20 59 20 190 0 138 -2 155 -22 186 -19 32 -69 63 -100 63 -7 0 -28 -9 -46 -20z"/>
<path d="M2217 4244 c-90 -49 -125 -251 -65 -373 67 -135 220 -114 264 37 24
80 16 204 -17 262 -43 79 -117 109 -182 74z"/>
<path d="M2198 3313 c-101 -8 -120 -115 -29 -153 19 -7 59 -11 103 -8 88 4
161 36 183 79 20 37 19 45 -5 69 -17 17 -32 20 -112 18 -51 -1 -114 -3 -140
-5z"/>
<path d="M3110 4243 c-25 -13 -43 -35 -65 -77 -28 -56 -30 -66 -30 -175 1 -96
5 -126 24 -173 29 -75 68 -108 126 -108 59 0 104 43 130 126 26 82 26 230 0
301 -36 100 -112 143 -185 106z"/>
<path d="M4000 4241 c-117 -62 -133 -390 -25 -498 28 -28 40 -33 80 -33 40 0
52 5 80 33 47 47 69 128 69 247 1 108 -19 179 -60 223 -46 49 -89 58 -144 28z"/>
<path d="M4050 3313 c-27 -10 -62 -47 -83 -88 -42 -82 -31 -270 21 -330 55
-64 129 -74 186 -25 51 45 69 99 69 205 0 146 -50 232 -141 241 -20 2 -44 1
-52 -3z"/>
<path d="M4035 2373 c-73 -5 -105 -29 -105 -80 0 -68 73 -101 186 -83 75 12
97 21 137 58 34 32 36 74 5 96 -22 16 -72 18 -223 9z"/>
<path d="M4922 3300 c-101 -62 -118 -312 -28 -416 41 -48 106 -58 160 -25 58
36 81 97 81 216 0 87 -3 107 -25 150 -44 87 -119 117 -188 75z"/>
<path d="M4928 2373 c-66 -5 -108 -37 -108 -83 0 -36 46 -76 97 -84 121 -20
277 57 259 127 -11 44 -57 52 -248 40z"/>
<path d="M3218 3297 c-50 -42 -88 -156 -88 -269 0 -37 1 -38 39 -38 79 0 150
39 181 100 37 73 21 193 -29 220 -32 17 -74 11 -103 -13z"/>
</g>
</svg>
